# xmcd CD database file
#
# Track frame offsets:
#	150
#	11722
#	32926
#	52262
#	83207
#	104421
#	129746
#	149298
#	175796
#	199618
#	221864
#	249196
#	278936
#	307816
#
# Disc length: 4324 seconds
#
# Revision: 1
# Processed by: cddbd v1.5.2PL0 Copyright (c) Steve Scherf et al.
# Submitted via: CDex 1.70beta2
#
DISCID=cd10e20e
DTITLE=Wonnemeyer - Remixes back to the future
DYEAR=2011
DGENRE=New Age
TTITLE0=Seven Dub - Intro
TTITLE1=Mark Oakland - Sunny
TTITLE2=Blue Pilots Project - Senta
TTITLE3=Aim feat. Kate Rogers - Sail (Rae and Christian Remix)
TTITLE4=Levitation - More than ever People (Alex B. Smoove Remix)
TTITLE5=Dubxanne feat. Delle - Roxanne
TTITLE6=Tango Chillout - Strange
TTITLE7=Christophe Goze - Promenade with Satie
TTITLE8=Adam and Daoud - The Prayer
TTITLE9=Christophe Goze - Chill the Blues
TTITLE10=FloorJIVERS - Papa was a Rolling Stone
TTITLE11=Hanna Haïs - Une Journée avec toi (Alfred Azzetto Sub Sub Mix)
TTITLE12=Yello vs. Hardfloor - Vicious Games 2010 (Lemon Popsicle Mix)
TTITLE13=Seven Dub - Outro
EXTD=YEAR: 2011
EXTT0=
EXTT1=
EXTT2=
EXTT3=
EXTT4=
EXTT5=
EXTT6=
EXTT7=
EXTT8=
EXTT9=
EXTT10=
EXTT11=
EXTT12=
EXTT13=
PLAYORDER=
